#N canvas 543 144 1355 690 10;
#X obj 688 482 throw~ outL;
#X obj 771 482 throw~ outR;
#X obj 688 428 *~ 0.5;
#X obj 598 232 r notes;
#X obj 450 400 s screenLine5;
#X obj 598 260 unpack f f;
#X msg 450 372 Chord: \$1;
#X obj 483 138 loadbang;
#X msg 715 204 A minor 7th;
#X obj 715 232 fudiformat -u;
#X obj 715 260 list tosymbol;
#X obj 598 288 notchord 60 71, f 20;
#X obj 450 344 spigot;
#X msg 483 232 1;
#X msg 383 232 60 100;
#X msg 522 232 60 0;
#X obj 824 232 r notes;
#X obj 824 260 stripnote;
#X obj 824 288 sel 77 79 81 83;
#X obj 598 400 voice 4;
#X obj 688 400 voice 3;
#X obj 779 400 voice 2;
#X obj 870 400 voice 1;
#X obj 715 176 text define samples;
#X msg 183 232 60 100;
#X msg 283 232 60 0;
#X obj 183 204 del 50;
#X obj 283 204 del 100;
#X obj 383 204 del 150;
#X obj 483 204 del 200;
#X connect 2 0 0 0;
#X connect 2 0 1 0;
#X connect 3 0 5 0;
#X connect 5 0 11 0;
#X connect 5 1 11 1;
#X connect 6 0 4 0;
#X connect 7 0 8 0;
#X connect 7 0 23 0;
#X connect 7 0 26 0;
#X connect 7 0 27 0;
#X connect 7 0 28 0;
#X connect 7 0 29 0;
#X connect 8 0 9 0;
#X connect 9 0 10 0;
#X connect 10 0 11 2;
#X connect 11 0 12 0;
#X connect 11 0 19 0;
#X connect 11 0 20 0;
#X connect 11 0 21 0;
#X connect 11 0 22 0;
#X connect 12 0 6 0;
#X connect 13 0 12 1;
#X connect 14 0 11 0;
#X connect 15 0 11 0;
#X connect 16 0 17 0;
#X connect 17 0 18 0;
#X connect 18 0 19 1;
#X connect 18 1 20 1;
#X connect 18 2 21 1;
#X connect 18 3 22 1;
#X connect 19 0 2 0;
#X connect 20 0 2 0;
#X connect 21 0 2 0;
#X connect 22 0 2 0;
#X connect 24 0 11 0;
#X connect 25 0 11 0;
#X connect 26 0 24 0;
#X connect 27 0 25 0;
#X connect 28 0 14 0;
#X connect 29 0 13 0;
#X connect 29 0 15 0;
