#N canvas 275 144 1623 690 10;
#X obj 1105 599 throw~ outL;
#X obj 1187 599 throw~ outR;
#X obj 484 178 r notes;
#X obj 484 206 unpack f f;
#X obj 369 66 loadbang;
#X msg 601 150 A minor 7th;
#X obj 601 178 fudiformat -u;
#X obj 601 206 list tosymbol;
#X obj 484 234 notchord 60 71, f 20;
#X obj 336 290 spigot;
#X msg 369 178 1;
#X msg 232 178 60 100;
#X msg 408 178 60 0;
#X obj 938 66 r notes;
#X obj 938 94 stripnote;
#X obj 484 290 makefilename ./Chords/%s.txt;
#X msg 484 318 read -c \$1;
#X obj 484 346 text define chord;
#X obj 232 150 del 50;
#X obj 369 150 del 100;
#X msg 232 318 Chord:;
#X msg 336 318 \$1;
#X obj 440 431 text sequence chord;
#X msg 497 403 bang;
#X msg 440 403 line 0;
#X obj 440 487 list store;
#X msg 440 459 prepend \$1;
#X msg 377 403 get 0 4;
#X obj 440 515 list trim;
#X msg 130 318 Strings:;
#X obj 440 346 bang;
#X obj 1479 122 * 1;
#X obj 1511 122 * 2;
#X obj 1543 122 * 3;
#X obj 1409 206 del;
#X obj 1409 234 del;
#X obj 1409 262 del;
#X obj 1409 290 del;
#X obj 1409 318 del;
#X obj 1409 346 del;
#X obj 1357 150 del;
#X obj 1447 122 * 8;
#X obj 121 94 r aux;
#X obj 121 122 sel 1;
#X obj 176 178 + 1;
#X obj 121 178 mod 5;
#X obj 72 234 pow;
#X msg 72 206 2;
#X obj 72 178 bang;
#X obj 121 206 + 3;
#X obj 1189 431 string 3;
#X obj 1273 431 string 2;
#X obj 1357 431 string 1;
#X obj 121 150 i 1;
#X obj 1105 487 tuner;
#X obj 1189 487 tuner;
#X obj 1273 487 tuner;
#X obj 1357 487 tuner;
#X obj 1132 459 r knob1;
#X obj 1216 459 r knob2;
#X obj 1300 459 r knob3;
#X obj 1384 459 r knob4;
#X obj 1447 94 r strum_tempo;
#X obj 72 262 s strum_tempo;
#X obj 1105 431 string 4;
#X obj 1105 543 *~ 1;
#X obj 938 122 sel 72 73 74 75 76 77 78 79 80 81 82 83;
#X obj 646 431 percussion 1;
#X obj 739 431 percussion 2;
#X obj 832 431 percussion 3;
#X obj 924 431 percussion 4;
#X obj 1015 431 percussion 5;
#X obj 232 346 s screenLine1;
#X obj 336 346 s screenLine2;
#X obj 130 346 s screenLine3;
#X obj 440 543 s screenLine4;
#X connect 2 0 3 0;
#X connect 3 0 8 0;
#X connect 3 1 8 1;
#X connect 4 0 5 0;
#X connect 4 0 18 0;
#X connect 4 0 19 0;
#X connect 4 0 53 0;
#X connect 5 0 6 0;
#X connect 6 0 7 0;
#X connect 7 0 8 2;
#X connect 8 0 9 0;
#X connect 8 0 15 0;
#X connect 9 0 21 0;
#X connect 10 0 9 1;
#X connect 11 0 8 0;
#X connect 12 0 8 0;
#X connect 13 0 14 0;
#X connect 14 0 66 0;
#X connect 15 0 16 0;
#X connect 16 0 17 0;
#X connect 16 0 30 0;
#X connect 18 0 11 0;
#X connect 19 0 10 0;
#X connect 19 0 12 0;
#X connect 19 0 20 0;
#X connect 19 0 29 0;
#X connect 20 0 72 0;
#X connect 21 0 73 0;
#X connect 22 0 26 0;
#X connect 23 0 22 0;
#X connect 24 0 22 0;
#X connect 25 0 28 0;
#X connect 26 0 25 0;
#X connect 27 0 25 0;
#X connect 28 0 75 0;
#X connect 29 0 74 0;
#X connect 30 0 24 0;
#X connect 30 0 27 0;
#X connect 30 0 23 0;
#X connect 31 0 34 1;
#X connect 31 0 39 1;
#X connect 32 0 35 1;
#X connect 32 0 38 1;
#X connect 33 0 36 1;
#X connect 33 0 37 1;
#X connect 34 0 50 0;
#X connect 35 0 51 0;
#X connect 36 0 52 0;
#X connect 37 0 64 0;
#X connect 38 0 50 0;
#X connect 39 0 51 0;
#X connect 40 0 37 0;
#X connect 40 0 38 0;
#X connect 40 0 39 0;
#X connect 40 0 52 0;
#X connect 41 0 40 1;
#X connect 42 0 43 0;
#X connect 43 0 53 0;
#X connect 44 0 53 1;
#X connect 45 0 49 0;
#X connect 46 0 63 0;
#X connect 47 0 46 0;
#X connect 48 0 47 0;
#X connect 49 0 46 1;
#X connect 50 0 55 0;
#X connect 51 0 56 0;
#X connect 52 0 57 0;
#X connect 53 0 44 0;
#X connect 53 0 45 0;
#X connect 53 0 48 0;
#X connect 54 0 65 0;
#X connect 55 0 65 0;
#X connect 56 0 65 0;
#X connect 57 0 65 0;
#X connect 58 0 54 1;
#X connect 59 0 55 1;
#X connect 60 0 56 1;
#X connect 61 0 57 1;
#X connect 62 0 31 0;
#X connect 62 0 32 0;
#X connect 62 0 33 0;
#X connect 62 0 41 0;
#X connect 64 0 54 0;
#X connect 65 0 0 0;
#X connect 65 0 1 0;
#X connect 66 0 67 0;
#X connect 66 1 68 0;
#X connect 66 2 69 0;
#X connect 66 3 70 0;
#X connect 66 3 64 1;
#X connect 66 3 50 1;
#X connect 66 3 51 1;
#X connect 66 3 52 1;
#X connect 66 4 64 1;
#X connect 66 4 50 1;
#X connect 66 4 51 1;
#X connect 66 4 52 1;
#X connect 66 4 71 0;
#X connect 66 5 64 0;
#X connect 66 6 34 0;
#X connect 66 6 35 0;
#X connect 66 6 36 0;
#X connect 66 6 64 0;
#X connect 66 7 50 0;
#X connect 66 8 37 0;
#X connect 66 8 38 0;
#X connect 66 8 39 0;
#X connect 66 8 52 0;
#X connect 66 9 51 0;
#X connect 66 10 40 0;
#X connect 66 10 34 0;
#X connect 66 10 35 0;
#X connect 66 10 36 0;
#X connect 66 10 64 0;
#X connect 66 11 52 0;
#X connect 67 0 65 0;
#X connect 68 0 65 0;
#X connect 69 0 65 0;
#X connect 70 0 65 0;
#X connect 71 0 65 0;
