#N canvas 543 144 1355 690 10;
#X obj 653 634 throw~ outL;
#X obj 736 634 throw~ outR;
#X obj 653 593 *~ 0.5;
#X obj 245 107 r notes;
#X obj 97 275 s screenLine5;
#X obj 245 135 unpack f f;
#X msg 97 247 Chord: \$1;
#X obj 130 37 loadbang;
#X msg 362 79 A minor 7th;
#X obj 362 107 fudiformat -u;
#X obj 362 135 list tosymbol;
#X obj 30 79 delay 250;
#X obj 245 163 notchord 60 71, f 20;
#X obj 97 219 spigot;
#X obj 130 79 delay 500;
#X msg 130 107 1;
#X msg 30 107 60 100;
#X msg 169 107 60 0;
#X obj 245 359 soundfiler;
#X obj 245 275 list prepend read;
#X obj 245 331 list trim;
#N canvas 0 50 450 250 (subpatch) 0;
#X array G-string 207700 float 2;
#X coords 0 1 207700 -1 200 140 1 0 0;
#X restore 1124 34 graph;
#X obj 245 219 makefilename ./Samples/%s/G.wav;
#X obj 245 247 list prepend -resize;
#X obj 245 303 list append G-string;
#N canvas 0 50 450 250 (subpatch) 0;
#X array C-string 256943 float 2;
#X coords 0 1 256943 -1 200 140 1 0 0;
#X restore 1124 194 graph;
#N canvas 0 50 450 250 (subpatch) 0;
#X array E-string 219333 float 2;
#X coords 0 1 219333 -1 200 140 1 0 0;
#X restore 1124 354 graph;
#N canvas 0 50 450 250 (subpatch) 0;
#X array A-string 251206 float 2;
#X coords 0 1 251206 -1 200 140 1 0 0;
#X restore 1124 514 graph;
#X obj 534 552 tabplay~ G-string;
#X obj 653 552 tabplay~ C-string;
#X obj 772 552 tabplay~ E-string;
#X obj 891 552 tabplay~ A-string;
#X obj 451 359 soundfiler;
#X obj 451 275 list prepend read;
#X obj 451 331 list trim;
#X obj 451 247 list prepend -resize;
#X obj 655 359 soundfiler;
#X obj 655 275 list prepend read;
#X obj 655 331 list trim;
#X obj 655 247 list prepend -resize;
#X obj 861 359 soundfiler;
#X obj 861 275 list prepend read;
#X obj 861 331 list trim;
#X obj 861 247 list prepend -resize;
#X obj 451 219 makefilename ./Samples/%s/C.wav;
#X obj 655 219 makefilename ./Samples/%s/E.wav;
#X obj 861 219 makefilename ./Samples/%s/A.wav;
#X obj 451 303 list append C-string;
#X obj 655 303 list append E-string;
#X obj 861 303 list append A-string;
#X obj 632 458 r notes;
#X obj 632 486 stripnote;
#X obj 632 512 sel 77 79 81 83;
#X connect 2 0 0 0;
#X connect 2 0 1 0;
#X connect 3 0 5 0;
#X connect 5 0 12 0;
#X connect 5 1 12 1;
#X connect 6 0 4 0;
#X connect 7 0 8 0;
#X connect 7 0 11 0;
#X connect 7 0 14 0;
#X connect 8 0 9 0;
#X connect 9 0 10 0;
#X connect 10 0 12 2;
#X connect 11 0 16 0;
#X connect 12 0 13 0;
#X connect 12 0 22 0;
#X connect 12 0 44 0;
#X connect 12 0 45 0;
#X connect 12 0 46 0;
#X connect 13 0 6 0;
#X connect 14 0 15 0;
#X connect 14 0 17 0;
#X connect 15 0 13 1;
#X connect 16 0 12 0;
#X connect 17 0 12 0;
#X connect 19 0 24 0;
#X connect 20 0 18 0;
#X connect 22 0 23 0;
#X connect 23 0 19 0;
#X connect 24 0 20 0;
#X connect 28 0 2 0;
#X connect 29 0 2 0;
#X connect 30 0 2 0;
#X connect 31 0 2 0;
#X connect 33 0 47 0;
#X connect 34 0 32 0;
#X connect 35 0 33 0;
#X connect 37 0 48 0;
#X connect 38 0 36 0;
#X connect 39 0 37 0;
#X connect 41 0 49 0;
#X connect 42 0 40 0;
#X connect 43 0 41 0;
#X connect 44 0 35 0;
#X connect 45 0 39 0;
#X connect 46 0 43 0;
#X connect 47 0 34 0;
#X connect 48 0 38 0;
#X connect 49 0 42 0;
#X connect 50 0 51 0;
#X connect 51 0 52 0;
#X connect 52 0 28 0;
#X connect 52 1 29 0;
#X connect 52 2 30 0;
#X connect 52 3 31 0;
