#N canvas 935 320 517 454 10;
#X obj 328 313 readsf~;
#X msg 328 256 1;
#X obj 328 88 inlet;
#X obj 328 341 outlet~;
#X text 328 62 PLAY;
#X obj 391 88 inlet;
#X text 391 62 STOP;
#X msg 391 256 0;
#X msg 78 256 open \$1;
#X obj 78 172 - 1;
#X obj 78 200 text get chord;
#X obj 78 228 makefilename ./Samples/\$1-%s.wav;
#X obj 328 228 del;
#X obj 78 144 i \$1;
#X connect 0 0 3 0;
#X connect 1 0 0 0;
#X connect 2 0 12 0;
#X connect 2 0 13 0;
#X connect 5 0 7 0;
#X connect 7 0 0 0;
#X connect 8 0 0 0;
#X connect 9 0 10 0;
#X connect 10 0 11 0;
#X connect 11 0 8 0;
#X connect 12 0 1 0;
#X connect 13 0 9 0;
