#N canvas 647 102 877 902 10;
#X obj 309 763 outlet~;
#X obj 139 145 inlet~;
#X text 139 119 STRING;
#X text 309 119 TUNING;
#X obj 365 567 *~;
#X obj 477 483 line~;
#X obj 477 455 pack 0 200;
#X obj 309 427 exp;
#X obj 309 511 /;
#X obj 391 455 * 0.001;
#X obj 579 483 line~;
#X obj 579 455 pack 0 200;
#X obj 365 595 +~;
#X obj 309 623 cos~;
#X obj 309 651 *~;
#X obj 309 735 +~;
#X obj 444 595 wrap~;
#X obj 500 623 *~;
#X obj 500 651 +~;
#X obj 444 679 cos~;
#X obj 444 707 *~;
#X obj 391 315 loadbang;
#X obj 391 483 t b f;
#X obj 444 567 +~ 0.5;
#X obj 309 567 -~ 0.5;
#X obj 309 595 *~ 0.5;
#X obj 444 623 -~ 0.5;
#X obj 444 651 *~ 0.5;
#X obj 309 455 - 1;
#X obj 309 399 * 0.05776;
#X obj 309 483 * -1;
#X obj 309 539 phasor~;
#X obj 579 427 max 1.5;
#X obj 391 427 max 1;
#X obj 139 173 delwrite~ \$0_del 5000;
#X obj 500 679 vd~ \$0_del;
#X obj 365 623 vd~ \$0_del;
#X obj 309 145 inlet;
#X obj 309 343 * 4;
#X obj 309 371 - 2;
#X msg 391 399 100;
#X msg 579 399 0;
#X obj 309 315 spigot;
#X obj 342 285 tgl 15 0 empty empty empty 17 7 0 10 -262144 -1 -1 1
1;
#X obj 342 229 bang;
#X msg 342 257 1;
#X obj 342 201 spigot;
#X obj 342 173 expr if ($f1 > 0.48 && $f1 < 0.52 \, 1 \, 0);
#X msg 343 371 0;
#X connect 1 0 34 0;
#X connect 4 0 12 0;
#X connect 5 0 4 1;
#X connect 5 0 17 1;
#X connect 6 0 5 0;
#X connect 7 0 28 0;
#X connect 8 0 31 0;
#X connect 9 0 22 0;
#X connect 10 0 12 1;
#X connect 10 0 18 1;
#X connect 11 0 10 0;
#X connect 12 0 36 0;
#X connect 13 0 14 0;
#X connect 14 0 15 0;
#X connect 15 0 0 0;
#X connect 16 0 17 0;
#X connect 16 0 26 0;
#X connect 17 0 18 0;
#X connect 18 0 35 0;
#X connect 19 0 20 0;
#X connect 20 0 15 1;
#X connect 21 0 41 0;
#X connect 21 0 40 0;
#X connect 21 0 48 0;
#X connect 22 0 8 0;
#X connect 22 1 8 1;
#X connect 23 0 16 0;
#X connect 24 0 25 0;
#X connect 25 0 13 0;
#X connect 26 0 27 0;
#X connect 27 0 19 0;
#X connect 28 0 30 0;
#X connect 29 0 7 0;
#X connect 30 0 8 0;
#X connect 31 0 4 0;
#X connect 31 0 24 0;
#X connect 31 0 23 0;
#X connect 32 0 11 0;
#X connect 33 0 9 0;
#X connect 33 0 6 0;
#X connect 35 0 20 1;
#X connect 36 0 14 1;
#X connect 37 0 47 0;
#X connect 37 0 42 0;
#X connect 38 0 39 0;
#X connect 39 0 29 0;
#X connect 40 0 33 0;
#X connect 41 0 32 0;
#X connect 42 0 38 0;
#X connect 43 0 42 1;
#X connect 44 0 45 0;
#X connect 45 0 43 0;
#X connect 46 0 44 0;
#X connect 47 0 46 0;
#X connect 47 0 46 1;
#X connect 48 0 29 0;
