#N canvas 935 320 899 658 10;
#X obj 614 412 readsf~;
#X msg 488 360 open \$1;
#X msg 614 360 1;
#X obj 187 219 inlet;
#X obj 614 219 inlet;
#X obj 614 440 outlet~;
#X text 614 193 PLAY;
#X obj 677 219 inlet;
#X text 677 193 STOP;
#X msg 677 360 0;
#X obj 187 247 makefilename ./Samples/Chords/%s/\$1.wav;
#X text 187 193 CHORD;
#X obj 218 332 - 1;
#X obj 488 304 - 1;
#X obj 488 276 float \$1;
#X obj 218 304 float \$1;
#X obj 488 332 text get samples;
#X obj 218 276 loadbang;
#X obj 187 360 text set samples;
#X connect 0 0 5 0;
#X connect 1 0 0 0;
#X connect 2 0 0 0;
#X connect 3 0 10 0;
#X connect 4 0 14 0;
#X connect 4 0 2 0;
#X connect 7 0 9 0;
#X connect 9 0 0 0;
#X connect 10 0 18 0;
#X connect 12 0 18 1;
#X connect 13 0 16 0;
#X connect 14 0 13 0;
#X connect 15 0 12 0;
#X connect 16 0 1 0;
#X connect 17 0 15 0;
