#N canvas 632 144 1188 690 10;
#X obj 488 577 throw~ outL;
#X obj 572 577 throw~ outR;
#X obj 488 532 *~ 0.5;
#X obj 485 78 r notes;
#X obj 856 319 print baseNote;
#X obj 856 291 print class;
#X obj 856 263 print chord;
#X obj 856 235 print position;
#X obj 856 207 print list;
#X obj 572 315 s screenLine5;
#X obj 485 246 splitfilename :;
#X msg 572 280 Chord:\$1;
#X obj 485 134 unpack f f;
#X obj 485 185 chord, f 10;
#X connect 2 0 0 0;
#X connect 2 0 1 0;
#X connect 3 0 12 0;
#X connect 10 1 11 0;
#X connect 11 0 9 0;
#X connect 12 0 13 0;
#X connect 12 1 13 1;
#X connect 13 0 4 0;
#X connect 13 1 5 0;
#X connect 13 2 6 0;
#X connect 13 2 10 0;
#X connect 13 3 7 0;
#X connect 13 4 8 0;
